<svg width="127" height="38" viewBox="0 0 127 38" fill="none" xmlns="http://www.w3.org/2000/svg">
<g filter="url(#filter0_d_439_151)">
<rect x="14.5684" y="1.07169" width="7.97157" height="25.408" rx="3.98579" transform="rotate(27.0848 14.5684 1.07169)" fill="#FBAE3D"/>
<rect x="28.9263" y="1.15335" width="8.46563" height="25.408" rx="4.23282" transform="rotate(26.6825 28.9263 1.15335)" fill="black"/>
<circle cx="40.5088" cy="20.362" r="5.35843" fill="#FBAE3D"/>
<path d="M63.9144 0H65.2648L75.2315 22.5054H70.7947L69.1228 18.6474H60.0564L58.3845 22.5054H53.9478L63.9144 0ZM67.5153 14.7893L64.5896 7.97335L61.6639 14.7893H67.5153Z" fill="black"/>
<path d="M77.6827 6.62302H81.9266V8.29486C83.1912 6.88023 84.8951 6.17292 87.0385 6.17292C88.5174 6.17292 89.8463 6.53729 91.0252 7.26604C92.2255 7.97335 93.1578 8.97002 93.8223 10.256C94.5082 11.5206 94.8511 12.9567 94.8511 14.5642C94.8511 16.3004 94.4974 17.8007 93.7901 19.0653C93.1043 20.3299 92.1612 21.2944 90.9609 21.9589C89.7606 22.6233 88.4317 22.9555 86.9742 22.9555C84.7665 22.9555 83.084 22.3018 81.9266 20.9943V29.7715H77.6827V6.62302ZM86.1704 19.0332C87.4779 19.0332 88.5389 18.6152 89.3534 17.7793C90.1893 16.9219 90.6072 15.8502 90.6072 14.5642C90.6072 13.2782 90.1893 12.2172 89.3534 11.3813C88.5389 10.524 87.4779 10.0953 86.1704 10.0953C84.863 10.0953 83.7913 10.524 82.9554 11.3813C82.1409 12.2172 81.7337 13.2782 81.7337 14.5642C81.7337 15.8502 82.1409 16.9219 82.9554 17.7793C83.7913 18.6152 84.863 19.0332 86.1704 19.0332Z" fill="black"/>
<path d="M97.7454 6.62302H101.989V8.1984C102.482 7.55539 103.093 7.06242 103.822 6.71948C104.551 6.3551 105.301 6.17292 106.072 6.17292C106.651 6.17292 107.133 6.23722 107.519 6.36582C107.905 6.47299 108.28 6.65518 108.644 6.91238L108.934 11.3813H108.323C108.001 10.9955 107.583 10.6847 107.069 10.4489C106.576 10.2132 106.062 10.0953 105.526 10.0953C104.518 10.0953 103.672 10.4168 102.986 11.0598C102.322 11.6814 101.989 12.6138 101.989 13.8569V22.5054H97.7454V6.62302Z" fill="black"/>
<path d="M118.642 22.9555C117.27 22.9555 116.102 22.5054 115.138 21.6052C114.173 20.705 113.691 19.3761 113.691 17.6185V10.2239H111.055V6.62302H113.691V3.98668L117.935 2.05764V6.62302H122.243V10.2239H117.935V17.4256C117.935 18.0901 118.095 18.583 118.417 18.9046C118.739 19.2261 119.156 19.3868 119.671 19.3868C120.464 19.3868 121.278 19.076 122.114 18.4544H122.597L122.307 22.1518C121.6 22.4733 121 22.6876 120.507 22.7948C120.035 22.9019 119.414 22.9555 118.642 22.9555Z" fill="black"/>
</g>
<defs>
<filter id="filter0_d_439_151" x="0.376953" y="0" width="126.22" height="37.7715" filterUnits="userSpaceOnUse" color-interpolation-filters="sRGB">
<feFlood flood-opacity="0" result="BackgroundImageFix"/>
<feColorMatrix in="SourceAlpha" type="matrix" values="0 0 0 0 0 0 0 0 0 0 0 0 0 0 0 0 0 0 127 0" result="hardAlpha"/>
<feOffset dy="4"/>
<feGaussianBlur stdDeviation="2"/>
<feComposite in2="hardAlpha" operator="out"/>
<feColorMatrix type="matrix" values="0 0 0 0 0 0 0 0 0 0 0 0 0 0 0 0 0 0 0.25 0"/>
<feBlend mode="normal" in2="BackgroundImageFix" result="effect1_dropShadow_439_151"/>
<feBlend mode="normal" in="SourceGraphic" in2="effect1_dropShadow_439_151" result="shape"/>
</filter>
</defs>
</svg>
