<svg width="120" height="30" viewBox="0 0 120 30" fill="none" xmlns="http://www.w3.org/2000/svg">
<rect x="11.5684" y="1.07169" width="7.97157" height="25.408" rx="3.98579" transform="rotate(27.0848 11.5684 1.07169)" fill="#FBAE3D"/>
<rect x="25.9263" y="1.15335" width="8.46563" height="25.408" rx="4.23282" transform="rotate(26.6825 25.9263 1.15335)" fill="white"/>
<circle cx="37.5088" cy="20.362" r="5.35843" fill="#FBAE3D"/>
<path d="M60.9144 0H62.2648L72.2315 22.5054H67.7947L66.1228 18.6474H57.0564L55.3845 22.5054H50.9478L60.9144 0ZM64.5153 14.7893L61.5896 7.97335L58.6639 14.7893H64.5153Z" fill="white"/>
<path d="M74.6827 6.62302H78.9266V8.29486C80.1912 6.88023 81.8951 6.17292 84.0385 6.17292C85.5174 6.17292 86.8463 6.53729 88.0252 7.26604C89.2255 7.97335 90.1578 8.97002 90.8223 10.256C91.5082 11.5206 91.8511 12.9567 91.8511 14.5642C91.8511 16.3004 91.4974 17.8007 90.7901 19.0653C90.1043 20.3299 89.1612 21.2944 87.9609 21.9589C86.7606 22.6233 85.4317 22.9555 83.9742 22.9555C81.7665 22.9555 80.084 22.3018 78.9266 20.9943V29.7715H74.6827V6.62302ZM83.1704 19.0332C84.4779 19.0332 85.5389 18.6152 86.3534 17.7793C87.1893 16.9219 87.6072 15.8502 87.6072 14.5642C87.6072 13.2782 87.1893 12.2172 86.3534 11.3813C85.5389 10.524 84.4779 10.0953 83.1704 10.0953C81.863 10.0953 80.7913 10.524 79.9554 11.3813C79.1409 12.2172 78.7337 13.2782 78.7337 14.5642C78.7337 15.8502 79.1409 16.9219 79.9554 17.7793C80.7913 18.6152 81.863 19.0332 83.1704 19.0332Z" fill="white"/>
<path d="M94.7454 6.62302H98.9893V8.1984C99.4823 7.55539 100.093 7.06242 100.822 6.71948C101.551 6.3551 102.301 6.17292 103.072 6.17292C103.651 6.17292 104.133 6.23722 104.519 6.36582C104.905 6.47299 105.28 6.65518 105.644 6.91238L105.934 11.3813H105.323C105.001 10.9955 104.583 10.6847 104.069 10.4489C103.576 10.2132 103.062 10.0953 102.526 10.0953C101.518 10.0953 100.672 10.4168 99.986 11.0598C99.3215 11.6814 98.9893 12.6138 98.9893 13.8569V22.5054H94.7454V6.62302Z" fill="white"/>
<path d="M115.642 22.9555C114.27 22.9555 113.102 22.5054 112.138 21.6052C111.173 20.705 110.691 19.3761 110.691 17.6185V10.2239H108.055V6.62302H110.691V3.98668L114.935 2.05764V6.62302H119.243V10.2239H114.935V17.4256C114.935 18.0901 115.095 18.583 115.417 18.9046C115.739 19.2261 116.156 19.3868 116.671 19.3868C117.464 19.3868 118.278 19.076 119.114 18.4544H119.597L119.307 22.1518C118.6 22.4733 118 22.6876 117.507 22.7948C117.035 22.9019 116.414 22.9555 115.642 22.9555Z" fill="white"/>
</svg>
